<svg width="592" height="873" viewBox="0 0 592 873" fill="none" xmlns="http://www.w3.org/2000/svg">
<rect x="170.277" y="31.3447" width="250.686" height="525.022" rx="125.343" fill="#BFBFBF"/>
<path d="M591.241 433.389C591.241 472.211 583.595 510.652 568.738 546.518C553.882 582.385 532.107 614.974 504.656 642.425C477.205 669.875 444.616 691.651 408.75 706.507C372.883 721.363 334.442 729.01 295.621 729.01C256.799 729.01 218.358 721.363 182.492 706.507C146.625 691.651 114.036 669.875 86.5853 642.425C59.1344 614.974 37.3591 582.385 22.5028 546.518C7.64645 510.652 -3.39388e-06 472.211 0 433.389L87.6889 433.389C87.6889 460.695 93.0672 487.734 103.517 512.961C113.966 538.189 129.282 561.111 148.591 580.419C167.899 599.727 190.821 615.043 216.049 625.493C241.276 635.943 268.315 641.321 295.621 641.321C322.927 641.321 349.965 635.943 375.193 625.493C400.42 615.044 423.342 599.727 442.651 580.419C461.959 561.111 477.275 538.189 487.724 512.961C498.174 487.734 503.552 460.695 503.552 433.389H591.241Z" fill="#BFBFBF"/>
<path d="M295.621 693.534V841.345" stroke="#BFBFBF" stroke-width="108.788"/>
</svg>
